<svg width="338" height="93" viewBox="0 0 338 93" fill="none" xmlns="http://www.w3.org/2000/svg">
<path d="M28.8101 62.864C23.6741 62.864 19.2341 61.952 15.4901 60.128C11.7941 58.256 8.93809 55.688 6.92209 52.424C4.90609 49.112 3.89809 45.296 3.89809 40.976C3.89809 36.704 4.64209 32.72 6.13009 29.024C7.66609 25.328 9.80209 22.136 12.5381 19.448C15.3221 16.712 18.6101 14.576 22.4021 13.04C26.2421 11.504 30.5141 10.736 35.2181 10.736C39.7301 10.736 43.7141 11.504 47.1701 13.04C50.6261 14.576 53.2421 16.784 55.0181 19.664L46.5941 26.576C45.2981 24.656 43.6421 23.192 41.6261 22.184C39.6101 21.176 37.2101 20.672 34.4261 20.672C31.5941 20.672 29.0261 21.176 26.7221 22.184C24.4181 23.144 22.4261 24.536 20.7461 26.36C19.1141 28.136 17.8661 30.224 17.0021 32.624C16.1381 35.024 15.7061 37.568 15.7061 40.256C15.7061 42.8 16.2581 45.032 17.3621 46.952C18.4661 48.824 20.0741 50.288 22.1861 51.344C24.2981 52.4 26.8421 52.928 29.8181 52.928C32.4101 52.928 34.8341 52.472 37.0901 51.56C39.3461 50.6 41.3861 49.112 43.2101 47.096L50.1221 54.152C47.4821 57.224 44.3381 59.456 40.6901 60.848C37.0901 62.192 33.1301 62.864 28.8101 62.864ZM78.5188 22.688C81.7828 22.688 84.5668 23.384 86.8708 24.776C89.1748 26.12 90.8068 28.112 91.7668 30.752C92.7748 33.392 92.8948 36.656 92.1268 40.544L87.8068 62H76.5748L80.7508 41.264C81.3268 38.432 81.0868 36.248 80.0308 34.712C79.0228 33.176 77.1508 32.408 74.4148 32.408C71.5828 32.408 69.2068 33.224 67.2868 34.856C65.4148 36.488 64.1188 38.984 63.3988 42.344L59.5108 62H48.2788L58.9348 8.576H70.1668L65.0548 34.208L62.8228 30.896C64.6948 28.064 66.9988 26 69.7348 24.704C72.5188 23.36 75.4468 22.688 78.5188 22.688ZM109.577 62.576C106.601 62.576 103.841 61.904 101.297 60.56C98.7527 59.168 96.7127 57.176 95.1767 54.584C93.6407 51.992 92.8727 48.872 92.8727 45.224C92.8727 41.96 93.4007 38.96 94.4567 36.224C95.5607 33.488 97.0967 31.112 99.0647 29.096C101.033 27.08 103.313 25.52 105.905 24.416C108.497 23.264 111.281 22.688 114.257 22.688C117.473 22.688 120.233 23.288 122.537 24.488C124.841 25.688 126.545 27.56 127.649 30.104C128.801 32.6 129.209 35.84 128.873 39.824C128.633 44.384 127.697 48.392 126.065 51.848C124.433 55.256 122.225 57.896 119.441 59.768C116.705 61.64 113.417 62.576 109.577 62.576ZM113.033 53.288C115.241 53.288 117.185 52.76 118.865 51.704C120.593 50.6 121.937 49.112 122.897 47.24C123.905 45.32 124.409 43.088 124.409 40.544C124.409 37.904 123.617 35.816 122.033 34.28C120.497 32.744 118.337 31.976 115.553 31.976C113.393 31.976 111.449 32.528 109.721 33.632C107.993 34.688 106.625 36.176 105.617 38.096C104.657 39.968 104.177 42.176 104.177 44.72C104.177 47.36 104.945 49.448 106.481 50.984C108.065 52.52 110.249 53.288 113.033 53.288ZM120.737 62L122.249 54.296L124.769 42.776L126.281 31.256L127.865 23.264H139.097L131.393 62H120.737ZM135.672 62L146.328 8.576H157.56L146.904 62H135.672ZM151.208 62L161.864 8.576H173.096L162.44 62H151.208ZM187.336 62.576C183.304 62.576 179.8 61.856 176.824 60.416C173.896 58.976 171.616 56.96 169.984 54.368C168.352 51.776 167.536 48.728 167.536 45.224C167.536 40.904 168.496 37.064 170.416 33.704C172.384 30.296 175.072 27.608 178.48 25.64C181.936 23.672 185.896 22.688 190.36 22.688C194.152 22.688 197.416 23.408 200.152 24.848C202.888 26.24 205 28.208 206.488 30.752C208.024 33.248 208.792 36.248 208.792 39.752C208.792 40.76 208.72 41.768 208.576 42.776C208.48 43.784 208.336 44.744 208.144 45.656H176.104L177.256 39.104H202.888L198.28 41.12C198.664 38.96 198.544 37.16 197.92 35.72C197.296 34.232 196.288 33.104 194.896 32.336C193.504 31.52 191.824 31.112 189.856 31.112C187.408 31.112 185.32 31.712 183.592 32.912C181.912 34.064 180.64 35.672 179.776 37.736C178.912 39.8 178.48 42.128 178.48 44.72C178.48 47.696 179.296 49.928 180.928 51.416C182.608 52.856 185.128 53.576 188.488 53.576C190.456 53.576 192.352 53.264 194.176 52.64C196 52.016 197.56 51.128 198.856 49.976L203.536 57.392C201.28 59.168 198.736 60.488 195.904 61.352C193.12 62.168 190.264 62.576 187.336 62.576ZM236.075 22.688C239.387 22.688 242.195 23.384 244.499 24.776C246.803 26.12 248.435 28.112 249.395 30.752C250.355 33.392 250.451 36.656 249.683 40.544L245.363 62H234.131L238.307 41.264C238.883 38.432 238.643 36.248 237.587 34.712C236.579 33.176 234.707 32.408 231.971 32.408C229.139 32.408 226.763 33.224 224.843 34.856C222.971 36.488 221.675 38.984 220.955 42.344L217.067 62H205.835L213.539 23.264H224.195L221.963 34.208L220.379 30.896C222.251 28.064 224.555 26 227.291 24.704C230.075 23.36 233.003 22.688 236.075 22.688ZM266.125 76.544C262.381 76.544 258.925 76.112 255.757 75.248C252.637 74.384 249.949 73.112 247.693 71.432L253.021 63.296C254.557 64.544 256.525 65.552 258.925 66.32C261.373 67.088 263.941 67.472 266.629 67.472C270.517 67.472 273.421 66.632 275.341 64.952C277.309 63.272 278.629 60.776 279.301 57.464L280.669 50.48L283.261 41.408L284.989 31.616L286.573 23.264H297.301L290.893 55.52C289.405 62.96 286.573 68.312 282.397 71.576C278.269 74.888 272.845 76.544 266.125 76.544ZM267.781 60.128C264.613 60.128 261.733 59.48 259.141 58.184C256.549 56.888 254.485 55.04 252.949 52.64C251.413 50.192 250.645 47.264 250.645 43.856C250.645 40.88 251.173 38.12 252.229 35.576C253.333 33.032 254.845 30.8 256.765 28.88C258.733 26.912 261.013 25.4 263.605 24.344C266.245 23.24 269.125 22.688 272.245 22.688C275.077 22.688 277.645 23.216 279.949 24.272C282.253 25.328 284.029 27.032 285.277 29.384C286.573 31.736 287.053 34.88 286.717 38.816C286.429 43.088 285.493 46.832 283.909 50.048C282.325 53.216 280.165 55.688 277.429 57.464C274.741 59.24 271.525 60.128 267.781 60.128ZM270.805 50.912C273.013 50.912 274.957 50.432 276.637 49.472C278.317 48.512 279.637 47.192 280.597 45.512C281.557 43.784 282.037 41.816 282.037 39.608C282.037 37.256 281.269 35.408 279.733 34.064C278.197 32.672 276.061 31.976 273.325 31.976C271.117 31.976 269.149 32.456 267.421 33.416C265.741 34.376 264.397 35.72 263.389 37.448C262.429 39.128 261.949 41.072 261.949 43.28C261.949 45.632 262.741 47.504 264.325 48.896C265.909 50.24 268.069 50.912 270.805 50.912ZM314.523 62.576C310.491 62.576 306.987 61.856 304.011 60.416C301.083 58.976 298.803 56.96 297.171 54.368C295.539 51.776 294.723 48.728 294.723 45.224C294.723 40.904 295.683 37.064 297.603 33.704C299.571 30.296 302.259 27.608 305.667 25.64C309.123 23.672 313.083 22.688 317.547 22.688C321.339 22.688 324.603 23.408 327.339 24.848C330.075 26.24 332.187 28.208 333.675 30.752C335.211 33.248 335.979 36.248 335.979 39.752C335.979 40.76 335.907 41.768 335.763 42.776C335.667 43.784 335.523 44.744 335.331 45.656H303.291L304.443 39.104H330.075L325.467 41.12C325.851 38.96 325.731 37.16 325.107 35.72C324.483 34.232 323.475 33.104 322.083 32.336C320.691 31.52 319.011 31.112 317.043 31.112C314.595 31.112 312.507 31.712 310.779 32.912C309.099 34.064 307.827 35.672 306.963 37.736C306.099 39.8 305.667 42.128 305.667 44.72C305.667 47.696 306.483 49.928 308.115 51.416C309.795 52.856 312.315 53.576 315.675 53.576C317.643 53.576 319.539 53.264 321.363 52.64C323.187 52.016 324.747 51.128 326.043 49.976L330.723 57.392C328.467 59.168 325.923 60.488 323.091 61.352C320.307 62.168 317.451 62.576 314.523 62.576Z" fill="white"/>
<path d="M173.391 86L174 82.955L183.251 75.705C184.024 75.0863 184.624 74.545 185.049 74.081C185.494 73.617 185.803 73.182 185.977 72.776C186.151 72.3507 186.238 71.9157 186.238 71.471C186.238 70.7943 185.987 70.253 185.484 69.847C184.981 69.441 184.237 69.238 183.251 69.238C182.439 69.238 181.656 69.4217 180.902 69.789C180.167 70.1563 179.51 70.6783 178.93 71.355L175.769 69.064C176.6 67.9427 177.731 67.0437 179.162 66.367C180.593 65.6903 182.188 65.352 183.947 65.352C185.378 65.352 186.625 65.5937 187.688 66.077C188.751 66.541 189.573 67.179 190.153 67.991C190.752 68.803 191.052 69.7407 191.052 70.804C191.052 71.5967 190.907 72.37 190.617 73.124C190.327 73.878 189.844 74.6513 189.167 75.444C188.51 76.2173 187.582 77.068 186.383 77.996L178.785 83.883L178.031 82.172H189.515L188.761 86H173.391ZM199.776 86.348C198.268 86.348 196.963 86.0483 195.861 85.449C194.779 84.8303 193.938 83.9507 193.338 82.81C192.739 81.65 192.439 80.2677 192.439 78.663C192.439 76.8263 192.691 75.1057 193.193 73.501C193.715 71.8963 194.44 70.485 195.368 69.267C196.296 68.0297 197.408 67.0727 198.703 66.396C200.018 65.7 201.458 65.352 203.024 65.352C204.532 65.352 205.828 65.6613 206.91 66.28C208.012 66.8793 208.863 67.7493 209.462 68.89C210.062 70.0307 210.361 71.413 210.361 73.037C210.361 74.8737 210.1 76.5943 209.578 78.199C209.076 79.8037 208.36 81.2247 207.432 82.462C206.504 83.68 205.393 84.637 204.097 85.333C202.802 86.0097 201.362 86.348 199.776 86.348ZM200.211 82.375C201.101 82.375 201.884 82.085 202.56 81.505C203.237 80.9057 203.798 80.1323 204.242 79.185C204.706 78.2377 205.054 77.2323 205.286 76.169C205.518 75.1057 205.634 74.1003 205.634 73.153C205.634 71.819 205.364 70.8523 204.822 70.253C204.281 69.6343 203.537 69.325 202.589 69.325C201.7 69.325 200.917 69.6247 200.24 70.224C199.564 70.804 198.993 71.5677 198.529 72.515C198.085 73.4623 197.746 74.4677 197.514 75.531C197.282 76.5943 197.166 77.5997 197.166 78.547C197.166 79.8617 197.437 80.8283 197.978 81.447C198.539 82.0657 199.283 82.375 200.211 82.375ZM210.037 86L210.646 82.955L219.897 75.705C220.671 75.0863 221.27 74.545 221.695 74.081C222.14 73.617 222.449 73.182 222.623 72.776C222.797 72.3507 222.884 71.9157 222.884 71.471C222.884 70.7943 222.633 70.253 222.13 69.847C221.628 69.441 220.883 69.238 219.897 69.238C219.085 69.238 218.302 69.4217 217.548 69.789C216.814 70.1563 216.156 70.6783 215.576 71.355L212.415 69.064C213.247 67.9427 214.378 67.0437 215.808 66.367C217.239 65.6903 218.834 65.352 220.593 65.352C222.024 65.352 223.271 65.5937 224.334 66.077C225.398 66.541 226.219 67.179 226.799 67.991C227.399 68.803 227.698 69.7407 227.698 70.804C227.698 71.5967 227.553 72.37 227.263 73.124C226.973 73.878 226.49 74.6513 225.813 75.444C225.156 76.2173 224.228 77.068 223.029 77.996L215.431 83.883L214.677 82.172H226.161L225.407 86H210.037ZM234.19 86.348C232.701 86.348 231.309 86.145 230.014 85.739C228.719 85.333 227.636 84.753 226.766 83.999L229.028 80.548C229.685 81.128 230.488 81.5823 231.435 81.911C232.402 82.2397 233.426 82.404 234.509 82.404C235.437 82.404 236.22 82.288 236.858 82.056C237.515 81.824 238.008 81.4857 238.337 81.041C238.685 80.5963 238.859 80.0743 238.859 79.475C238.859 78.7403 238.579 78.199 238.018 77.851C237.477 77.4837 236.645 77.3 235.524 77.3H233.378L233.987 74.197L240.831 67.788L241.15 69.47H230.449L231.232 65.7H245.442L244.862 68.745L238.018 75.154L235.814 73.82H236.858C238.269 73.82 239.478 74.0423 240.483 74.487C241.488 74.9123 242.262 75.531 242.803 76.343C243.344 77.1357 243.615 78.083 243.615 79.185C243.615 80.5577 243.209 81.7853 242.397 82.868C241.604 83.9507 240.493 84.8013 239.062 85.42C237.651 86.0387 236.027 86.348 234.19 86.348Z" fill="#7C7C7C"/>
</svg>
