<svg width="3440" height="1021" viewBox="0 0 3440 1021" fill="none" xmlns="http://www.w3.org/2000/svg">
<g clip-path="url(#clip0_597_87)">
<path d="M371.012 701.219C548.438 701.219 692.271 557.386 692.271 379.96C692.271 202.533 548.438 58.7002 371.012 58.7002C193.585 58.7002 49.7522 202.533 49.7522 379.96C49.7522 557.386 193.585 701.219 371.012 701.219Z" stroke="#1E3C3C" stroke-width="30.2362" stroke-linecap="round" stroke-linejoin="round"/>
<path fill-rule="evenodd" clip-rule="evenodd" d="M2650.97 184.693L2669.72 205.104L2674.85 210.585L2665.58 249.272L2658.44 279.08L2657.43 520.601C2657.05 571.678 2655.14 608.207 2618.51 609.307L2562.47 609.356L2562.4 619.034L2687.53 617.675C2686.97 595.862 2683.74 570.009 2683.66 552.712L2683.35 309.398C2673.54 288.606 2665.75 281.658 2658.44 279.08L2674.85 210.585L2689.22 226.917L3013.38 611.605C3022.62 621.072 3033.08 626.439 3042.31 627.713L3047.63 238.882C3047.68 217.445 3050.49 167.962 3054.56 162.007C3061.34 153.339 3110.98 156.745 3139.34 152.528C3140.23 152.091 3144.18 145.555 3141.42 144.814L2938.2 143.742C2933.14 144.266 2935.85 149.063 2938.11 152.181C2954.85 153.33 3003.96 150.357 3013.39 162.397C3015.92 166.949 3020.6 216.213 3020.83 240.446L3020.04 531.262C3020.08 536.538 3015.21 541.203 3010.96 537.897L2694.61 162.884C2688.03 155.946 2673.7 143.291 2659.27 142.74L2542.29 142.737C2400.88 143.091 2305.94 157.098 2247.09 175.641C2170.17 202.775 2088.69 252.756 2080.42 352.399C2074.91 490.175 2174.15 539.839 2267.85 525.725L2272.47 522.073C2175 498.15 2118.57 446.871 2130.91 352.489C2138.93 281.092 2180.1 231.703 2240.57 198.005C2280.99 176.469 2364.01 158.393 2554.08 152.411C2615.35 150.289 2625.9 165.539 2650.97 184.693Z" fill="#1E3C3C"/>
<path fill-rule="evenodd" clip-rule="evenodd" d="M1893.08 178.852L1894.33 202.679L1895.59 546.701C1895.54 581.627 1890.11 608.302 1858.8 609.312L1802.01 609.951V616.572L2099.03 617.034C2148.7 616.412 2200 612.045 2252.14 605.706L2318.53 594.503C2396.53 579.821 2453.91 541.842 2494.22 484.558C2544.97 403.153 2522.2 276.288 2422.6 245.071L2380.63 235.292C2361.99 233.28 2343.35 233.726 2330.24 238.473C2331.68 244.449 2344.15 242.763 2352.03 245.367C2475.74 282.458 2486.43 389.82 2445.33 484.269C2393.54 562.778 2326.51 577.793 2242.18 594.961C2194.49 602.403 2146.43 606.882 2097.94 607.794L1967.72 608.303C1946.23 606.067 1941.41 583.323 1941.26 554.837L1942.82 201.645C1942.53 179.43 1941.91 162.509 1960.43 155.021C1964.59 153.984 2013.89 153.904 2036.15 151.336L2037.4 144.83L1802.57 142.657L1802.47 151.502L1870.53 156.078C1887.19 156.181 1892.15 165.764 1893.08 178.852Z" fill="#1E3C3C"/>
<path fill-rule="evenodd" clip-rule="evenodd" d="M3081.91 622.106L3124.96 621.409C3178.56 620.209 3230.97 610.93 3283.67 601.26C3380.55 574.483 3416.46 527.882 3413.51 473.721C3412.72 418.516 3374.95 381.801 3311.9 357.739C3269.6 343.325 3215.01 322.767 3186.84 307.125C3138.86 262.255 3146.8 215.877 3192.23 174.291C3238.47 149.297 3289.78 147.404 3346.66 160.841C3355.91 187.393 3365.17 213.946 3374.42 240.499C3377.68 249.751 3379.98 254.173 3386.19 250.414L3392.53 158.193C3392.65 150.841 3390.18 150.505 3385.11 149.408L3313.57 138.185C3244.2 135.126 3192 147.188 3156.97 174.372C3111.14 212.105 3100.7 282.203 3144.4 330.588C3168.32 357.876 3218.8 375.551 3282.47 398.13C3320.7 406.894 3357.06 427.342 3367.4 475.472C3371.27 546.985 3323.24 584.813 3237.21 596.668L3221.16 599.507C3197.53 604.284 3168.53 609.163 3127.42 613.125L3081.9 612.912L3081.9 621.739L3081.91 622.106Z" fill="#1E3C3C"/>
<path fill-rule="evenodd" clip-rule="evenodd" d="M207.589 252.816H450.571L263.474 628.63C263.474 629.44 264.284 631.059 264.284 631.869C264.284 638.349 259.425 643.208 252.945 643.208C246.466 643.208 241.606 637.539 241.606 631.869C241.606 627.01 244.846 622.96 248.895 621.34L424.653 270.635H207.589C205.159 272.254 202.729 273.874 199.489 273.874C193.009 273.874 188.15 268.205 188.15 262.535C188.15 256.865 193.009 251.196 199.489 251.196C202.728 250.386 205.968 251.195 207.589 252.816ZM330.7 643.207C337.18 643.207 342.039 637.537 342.039 631.868C342.039 631.058 342.039 629.438 341.229 628.628L567.203 175.058H207.589C205.159 173.438 202.729 171.818 199.489 171.818C193.009 171.818 188.15 176.678 188.15 183.157C188.15 189.637 193.009 194.497 199.489 194.497C202.729 194.497 205.159 193.686 207.589 191.257L539.665 191.257L325.84 620.529C321.79 622.148 318.551 626.198 318.551 631.058C318.551 637.537 324.22 643.207 330.7 643.207ZM291.012 643.207C297.492 643.207 302.351 637.537 302.351 631.868C302.351 630.248 302.351 629.438 301.541 627.818L507.267 216.367L207.589 216.367C205.159 213.937 202.729 213.128 199.489 213.128C193.009 213.128 188.15 217.987 188.15 224.467C188.15 230.946 193.009 235.806 199.489 235.806C202.729 235.806 205.159 234.996 207.589 232.566H479.729L286.153 621.34C282.103 622.959 279.673 627.009 279.673 631.869C279.673 637.538 284.533 643.207 291.012 643.207Z" fill="#1E3C3C"/>
<path fill-rule="evenodd" clip-rule="evenodd" d="M50.8464 747.813C1175.71 716.407 2282.38 717.275 3407.25 748.15L3416.84 759.939H41.7854L50.8464 747.813Z" fill="#1E3C3C"/>
<path d="M1895.58 978.074H1806.92V829.202H1840.48V950.857H1895.58V978.074Z" fill="#969594"/>
<path d="M2046.54 978.074H2010L1999.41 944.94H1946.47L1935.98 978.074H1899.62L1953.84 829.204H1993.6L2046.54 978.074ZM1991.72 919.213L1975.74 869.176C1974.57 865.42 1973.72 860.955 1973.22 855.781H1972.4C1972.05 860.14 1971.2 864.463 1969.82 868.751L1953.62 919.213H1991.72Z" fill="#969594"/>
<path d="M2169.68 856.49H2127.19V978.074H2093.56V856.49H2051.32V829.202H2169.68V856.49Z" fill="#969594"/>
<path d="M2320.64 978.074H2284.11L2273.51 944.94H2220.57L2210.08 978.074H2173.72L2227.94 829.204H2267.7L2320.64 978.074ZM2265.82 919.213L2249.84 869.176C2248.67 865.42 2247.82 860.955 2247.32 855.781H2246.51C2246.15 860.14 2245.3 864.463 2243.92 868.751L2227.73 919.213H2265.82Z" fill="#969594"/>
<path d="M2508.88 978.074H2475.75V888.986C2475.75 879.382 2476.17 868.751 2476.99 857.128H2476.17C2474.44 866.271 2472.88 872.826 2471.49 876.866L2436.62 978.074H2409.2L2373.69 877.894C2372.73 875.201 2371.17 868.255 2369.01 857.128H2368.09C2368.98 871.799 2369.44 884.662 2369.44 895.754V978.074H2339.21V829.204H2388.32L2418.76 917.441C2421.17 924.493 2422.95 931.581 2424.04 938.739H2424.68C2426.53 930.482 2428.51 923.324 2430.6 917.229L2461.01 829.204H2508.88V978.074Z" fill="#969594"/>
<path d="M2601.34 978.074V829.204H2654.1C2706.97 829.204 2733.41 853.372 2733.41 901.778C2733.41 924.954 2726.18 943.452 2711.76 957.308C2697.33 971.164 2678.09 978.074 2654.1 978.074H2601.34ZM2634.89 856.49V950.858H2651.51C2666.04 950.858 2677.42 946.5 2685.71 937.782C2693.97 929.065 2698.11 917.193 2698.11 902.168C2698.11 887.994 2694 876.831 2685.82 868.716C2677.6 860.565 2666.11 856.49 2651.3 856.49H2634.89Z" fill="#969594"/>
<path d="M2804.11 829.202V855.141H2791.67V952.131H2804.11V978.074H2745.67V952.131H2758.11V855.141H2745.67V829.202H2804.11Z" fill="#969594"/>
<path d="M2947.7 968.115C2933.17 976.478 2915.09 980.659 2893.48 980.659C2869.56 980.659 2850.67 974.033 2836.85 960.779C2823.06 947.526 2816.15 929.276 2816.15 906.03C2816.15 882.641 2823.7 863.576 2838.76 848.835C2853.86 834.093 2873.95 826.722 2899.01 826.722C2914.77 826.722 2928.7 828.884 2940.71 833.243V864.71C2929.23 858.048 2915.2 854.753 2898.58 854.753C2884.65 854.753 2873.35 859.253 2864.6 868.289C2855.81 877.326 2851.45 889.374 2851.45 904.47C2851.45 919.744 2855.38 931.58 2863.21 939.978C2871.08 948.341 2881.68 952.523 2895.04 952.523C2903.08 952.523 2909.46 951.389 2914.14 949.121V920.027H2884.37V893.237H2947.7V968.115Z" fill="#969594"/>
<path d="M3022.64 829.202V855.141H3010.2V952.131H3022.64V978.074H2964.21V952.131H2976.65V855.141H2964.21V829.202H3022.64Z" fill="#969594"/>
<path d="M3148.59 856.49H3106.1V978.074H3072.47V856.49H3030.23V829.202H3148.59V856.49Z" fill="#969594"/>
<path d="M3299.55 978.074H3263.01L3252.42 944.94H3199.47L3188.98 978.074H3152.63L3206.84 829.204H3246.6L3299.55 978.074ZM3244.73 919.213L3228.74 869.176C3227.57 865.42 3226.72 860.955 3226.23 855.781H3225.41C3225.06 860.14 3224.21 864.463 3222.83 868.751L3206.63 919.213H3244.73Z" fill="#969594"/>
<path d="M3406.78 978.074H3318.12V829.202H3351.67V950.857H3406.78V978.074Z" fill="#969594"/>
<path fill-rule="evenodd" clip-rule="evenodd" d="M2674.85 210.591L2674.85 210.593L2658.43 279.088L2658.44 279.033L2674.85 210.591Z" fill="white"/>
<path fill-rule="evenodd" clip-rule="evenodd" d="M945.721 626.06L1127.22 175.684C1136.64 154.897 1146.34 151.275 1170.79 151.332L1243.14 152.062C1283.56 155.064 1277.39 193.167 1278.94 225.694L1279.86 554.788C1281.28 595.254 1264.65 611.51 1241.83 611.258L1204.14 610.842C1194.68 610.285 1189.17 613.682 1182.08 615.496C1188.46 619.073 1199.7 620.711 1214.26 621.025L1251.06 617.153L1346.03 616.512C1368.25 617.944 1377.17 618.853 1401.02 619.472L1468.29 618.382C1521.88 617.182 1574.3 607.903 1626.99 598.233C1723.88 571.456 1759.79 524.855 1756.83 470.694C1756.04 415.489 1718.28 378.774 1655.22 354.712C1612.92 340.298 1558.33 319.74 1530.17 304.098C1482.18 259.228 1490.12 212.85 1535.55 171.264C1581.8 146.27 1633.11 144.377 1689.99 157.814C1699.24 184.366 1708.49 210.919 1717.75 237.472C1721.01 246.724 1723.31 251.146 1729.52 247.387L1735.86 155.166C1735.98 147.814 1733.5 147.478 1728.44 146.381L1656.9 135.158C1587.53 132.099 1535.33 144.161 1500.29 171.345C1454.47 209.078 1444.03 279.176 1487.72 327.561C1511.65 354.849 1562.13 372.524 1625.79 395.103C1664.03 403.867 1700.38 424.315 1710.73 472.445C1714.6 543.958 1666.56 581.786 1580.54 593.641L1564.49 596.48C1540.86 601.257 1511.86 606.443 1470.75 610.405L1364.03 609.906C1352.64 609.722 1328.29 609.386 1327.33 596.329L1325.72 555.521L1324.65 226.356C1325.83 192.975 1319.63 151.421 1364.2 153.284L1417.78 153.827L1418.07 141.112L1117.01 137.685L956.575 549.847L808.918 180.918C797.935 156.876 766.574 144.535 753.611 144.799L680.171 145.414L680.425 150.109C704.617 150.559 735.998 151.563 757.171 185.483L945.721 626.06Z" fill="#1E3C3C"/>
<path fill-rule="evenodd" clip-rule="evenodd" d="M945.721 626.06L1127.22 175.684C1136.64 154.897 1146.34 151.275 1170.79 151.332L1243.14 152.062C1283.56 155.064 1277.39 193.167 1278.94 225.694L1279.86 554.788C1281.28 595.254 1264.65 611.51 1241.83 611.258L1204.14 610.842C1194.68 610.285 1189.17 613.682 1182.08 615.496C1188.46 619.073 1199.7 620.711 1214.26 621.025L1251.06 617.153L1346.03 616.512C1368.25 617.944 1377.17 618.853 1401.02 619.472L1468.29 618.382C1521.88 617.182 1574.3 607.903 1626.99 598.233C1723.88 571.456 1759.79 524.855 1756.83 470.694C1756.04 415.489 1718.28 378.774 1655.22 354.712C1612.92 340.298 1558.33 319.74 1530.17 304.098C1482.18 259.228 1490.12 212.85 1535.55 171.264C1581.8 146.27 1633.11 144.377 1689.99 157.814C1699.24 184.366 1708.49 210.919 1717.75 237.472C1721.01 246.724 1723.31 251.146 1729.52 247.387L1735.86 155.166C1735.98 147.814 1733.5 147.478 1728.44 146.381L1656.9 135.158C1587.53 132.099 1535.33 144.161 1500.29 171.345C1454.47 209.078 1444.03 279.176 1487.72 327.561C1511.65 354.849 1562.13 372.524 1625.79 395.103C1664.03 403.867 1700.38 424.315 1710.73 472.445C1714.6 543.958 1666.56 581.786 1580.54 593.641L1564.49 596.48C1540.86 601.257 1511.86 606.443 1470.75 610.405L1364.03 609.906C1352.64 609.722 1328.29 609.386 1327.33 596.329L1325.72 555.521L1324.65 226.356C1325.83 192.975 1319.63 151.421 1364.2 153.284L1417.78 153.827L1418.07 141.112L1117.01 137.685L956.575 549.847L808.918 180.918C797.935 156.876 766.574 144.535 753.611 144.799L680.171 145.414L680.425 150.109C704.617 150.559 735.998 151.563 757.171 185.483L945.721 626.06Z" fill="#1E3C3C"/>
<path fill-rule="evenodd" clip-rule="evenodd" d="M945.721 626.06L1127.22 175.684C1136.64 154.897 1146.34 151.275 1170.79 151.332L1243.14 152.062C1283.56 155.064 1277.39 193.167 1278.94 225.694L1279.86 554.788C1281.28 595.254 1264.65 611.51 1241.83 611.258L1204.14 610.842C1194.68 610.285 1189.17 613.682 1182.08 615.496C1188.46 619.073 1199.7 620.711 1214.26 621.025L1251.06 617.153L1346.03 616.512C1368.25 617.944 1377.17 618.853 1401.02 619.472L1468.29 618.382C1521.88 617.182 1574.3 607.903 1626.99 598.233C1723.88 571.456 1759.79 524.855 1756.83 470.694C1756.04 415.489 1718.28 378.774 1655.22 354.712C1612.92 340.298 1558.33 319.74 1530.17 304.098C1482.18 259.228 1490.12 212.85 1535.55 171.264C1581.8 146.27 1633.11 144.377 1689.99 157.814C1699.24 184.366 1708.49 210.919 1717.75 237.472C1721.01 246.724 1723.31 251.146 1729.52 247.387L1735.86 155.166C1735.98 147.814 1733.5 147.478 1728.44 146.381L1656.9 135.158C1587.53 132.099 1535.33 144.161 1500.29 171.345C1454.47 209.078 1444.03 279.176 1487.72 327.561C1511.65 354.849 1562.13 372.524 1625.79 395.103C1664.03 403.867 1700.38 424.315 1710.73 472.445C1714.6 543.958 1666.56 581.786 1580.54 593.641L1564.49 596.48C1540.86 601.257 1511.86 606.443 1470.75 610.405L1364.03 609.906C1352.64 609.722 1328.29 609.386 1327.33 596.329L1325.72 555.521L1324.65 226.356C1325.83 192.975 1319.63 151.421 1364.2 153.284L1417.78 153.827L1418.07 141.112L1117.01 137.685L956.575 549.847L808.918 180.918C797.935 156.876 766.574 144.535 753.611 144.799L680.171 145.414L680.425 150.109C704.617 150.559 735.998 151.563 757.171 185.483L945.721 626.06Z" fill="#1E3C3C"/>
</g>
<defs>
<clipPath id="clip0_597_87">
<rect width="3439.37" height="1020.47" fill="white"/>
</clipPath>
</defs>
</svg>
