<?xml version="1.0" encoding="UTF-8" standalone="no"?>
<!-- Created with Inkscape (http://www.inkscape.org/) -->

<svg
   version="1.1"
   id="svg2"
   width="1333.3333"
   height="1333.3333"
   viewBox="0 0 1333.3333 1333.3333"
   sodipodi:docname="Alexia Logo.ai"
   xmlns:inkscape="http://www.inkscape.org/namespaces/inkscape"
   xmlns:sodipodi="http://sodipodi.sourceforge.net/DTD/sodipodi-0.dtd"
   xmlns="http://www.w3.org/2000/svg"
   xmlns:svg="http://www.w3.org/2000/svg">
  <defs
     id="defs6">
    <clipPath
       clipPathUnits="userSpaceOnUse"
       id="clipPath32">
      <path
         d="M 0,1000 H 1000 V 0 H 0 Z"
         id="path30" />
    </clipPath>
  </defs>
  <sodipodi:namedview
     id="namedview4"
     pagecolor="#ffffff"
     bordercolor="#000000"
     borderopacity="0.25"
     inkscape:showpageshadow="2"
     inkscape:pageopacity="0.0"
     inkscape:pagecheckerboard="0"
     inkscape:deskcolor="#d1d1d1" />
  <g
     id="g8"
     inkscape:groupmode="layer"
     inkscape:label="Alexia Logo"
     transform="matrix(1.3333333,0,0,-1.3333333,0,1333.3333)">
    <g
       id="g10"
       transform="translate(264.1816,415.501)">
      <path
         d="m 0,0 h -1.671 l -14.501,32.935 h 1.917 L -0.836,2.557 12.583,32.935 h 1.918 z"
         style="fill:#000000;fill-opacity:1;fill-rule:nonzero;stroke:none"
         id="path12" />
    </g>
    <g
       id="g14"
       transform="translate(343.1455,415.501)">
      <path
         d="m 0,0 h -23.349 v 32.935 h 23.3 v -1.623 h -21.53 V 17.353 H -1.523 V 15.779 H -21.579 V 1.622 L 0,1.622 Z"
         style="fill:#000000;fill-opacity:1;fill-rule:nonzero;stroke:none"
         id="path16" />
    </g>
    <g
       id="g18"
       transform="translate(413.1543,415.501)">
      <path
         d="M 0,0 H -1.671 L -25.659,29.937 V 0 h -1.77 v 32.935 h 1.623 L -1.819,2.998 V 32.935 H 0 Z"
         style="fill:#000000;fill-opacity:1;fill-rule:nonzero;stroke:none"
         id="path20" />
    </g>
    <g
       id="g22"
       transform="translate(468.4746,446.8135)">
      <path
         d="M 0,0 V -31.312 H -1.868 V 0 h -13.125 v 1.622 h 28.167 l 0,-1.622 z"
         style="fill:#000000;fill-opacity:1;fill-rule:nonzero;stroke:none"
         id="path24" />
    </g>
    <g
       id="g26">
      <g
         id="g28"
         clip-path="url(#clipPath32)">
        <g
           id="g34"
           transform="translate(548.9219,429.6084)">
          <path
             d="m 0,0 c 0,-4.391 -1.229,-7.93 -3.687,-10.617 -2.458,-2.688 -5.702,-4.03 -9.732,-4.03 -4.031,0 -7.275,1.342 -9.733,4.03 -2.457,2.687 -3.687,6.226 -3.687,10.617 v 18.827 h 1.771 V 0 c 0,-3.866 1.063,-6.988 3.194,-9.364 2.131,-2.375 4.948,-3.564 8.455,-3.564 3.474,0 6.275,1.18 8.405,3.539 2.13,2.361 3.196,5.49 3.196,9.389 V 18.827 H 0 Z"
             style="fill:#000000;fill-opacity:1;fill-rule:nonzero;stroke:none"
             id="path36" />
        </g>
        <g
           id="g38"
           transform="translate(605.21,432.7549)">
          <path
             d="m 0,0 c 2.49,0 4.489,0.647 5.996,1.941 1.508,1.295 2.262,2.991 2.262,5.088 0,2.097 -0.754,3.793 -2.262,5.088 C 4.489,13.411 2.49,14.059 0,14.059 H -13.026 V 0 Z m 8.848,-17.254 -13.96,15.632 h -7.914 v -15.632 h -1.77 V 15.681 H 0 c 3.015,0 5.439,-0.786 7.274,-2.36 C 9.109,11.748 10.027,9.65 10.027,7.029 10.027,4.407 9.109,2.311 7.274,0.737 5.439,-0.836 3.015,-1.622 0,-1.622 h -2.852 l 14.108,-15.632 z"
             style="fill:#000000;fill-opacity:1;fill-rule:nonzero;stroke:none"
             id="path40" />
        </g>
        <g
           id="g42"
           transform="translate(683.2393,415.501)">
          <path
             d="m 0,0 h -23.349 v 32.935 h 23.3 v -1.623 h -21.53 V 17.353 H -1.523 V 15.779 H -21.579 V 1.622 L 0,1.622 Z"
             style="fill:#000000;fill-opacity:1;fill-rule:nonzero;stroke:none"
             id="path44" />
        </g>
        <g
           id="g46"
           transform="translate(747.4922,446.5674)">
          <path
             d="m 0,0 c 2.081,-1.605 3.384,-3.72 3.908,-6.341 l -1.72,-0.442 c -0.459,2.326 -1.59,4.179 -3.392,5.554 -1.803,1.376 -4.064,2.065 -6.783,2.065 -2.622,0 -4.785,-0.672 -6.49,-2.016 -1.703,-1.343 -2.555,-3.13 -2.555,-5.357 0,-1.803 0.549,-3.163 1.646,-4.08 1.098,-0.918 2.63,-1.607 4.597,-2.065 l 7.274,-1.77 c 1.147,-0.262 2.131,-0.557 2.95,-0.884 0.819,-0.328 1.646,-0.778 2.482,-1.352 0.836,-0.574 1.475,-1.335 1.918,-2.286 0.441,-0.95 0.663,-2.064 0.663,-3.342 0,-2.819 -1.058,-5.072 -3.171,-6.759 -2.113,-1.688 -4.924,-2.531 -8.431,-2.531 -3.538,0 -6.512,0.892 -8.92,2.678 -2.409,1.786 -3.81,4.154 -4.204,7.103 l 1.917,0.442 c 0.295,-2.621 1.484,-4.71 3.564,-6.266 2.081,-1.557 4.678,-2.335 7.792,-2.335 2.949,0 5.292,0.679 7.029,2.04 1.737,1.359 2.605,3.203 2.605,5.529 0,1.9 -0.516,3.302 -1.549,4.203 -1.031,0.901 -2.678,1.614 -4.94,2.138 l -7.766,1.819 c -4.915,1.18 -7.373,3.752 -7.373,7.718 0,2.686 1.023,4.85 3.071,6.488 2.049,1.639 4.695,2.458 7.94,2.458 C -4.728,2.409 -2.08,1.605 0,0"
             style="fill:#000000;fill-opacity:1;fill-rule:nonzero;stroke:none"
             id="path48" />
        </g>
        <g
           id="g50"
           transform="translate(290.4614,482.8184)">
          <path
             d="M 0,0 -45.578,91.346 -91.159,0 h -5.582 L -45.578,101.571 5.582,0 Z"
             style="fill:#000000;fill-opacity:1;fill-rule:nonzero;stroke:none"
             id="path52" />
        </g>
        <g
           id="g54"
           transform="translate(800.6982,482.8184)">
          <path
             d="M 0,0 -45.578,91.346 -91.16,0 h -5.581 L -45.578,101.571 5.581,0 Z"
             style="fill:#000000;fill-opacity:1;fill-rule:nonzero;stroke:none"
             id="path56" />
        </g>
        <path
           d="m 500.014,536.333 h -67.826 v -4.851 h 67.826 z"
           style="fill:#000000;fill-opacity:1;fill-rule:nonzero;stroke:none"
           id="path58" />
        <path
           d="m 500.014,584.39 h -67.826 v -5.003 h 67.826 z"
           style="fill:#000000;fill-opacity:1;fill-rule:nonzero;stroke:none"
           id="path60" />
        <path
           d="m 432.187,482.818 h 67.95 v 5.003 h -67.95 z"
           style="fill:#000000;fill-opacity:1;fill-rule:nonzero;stroke:none"
           id="path62" />
        <path
           d="m 667.487,584.39 h 5.458 V 482.819 h -5.458 z"
           style="fill:#000000;fill-opacity:1;fill-rule:nonzero;stroke:none"
           id="path64" />
        <g
           id="g66"
           transform="translate(335.0518,585.0396)">
          <path
             d="M 0,0 H -5.493 V -97.218 L 0,-97.186 Z"
             style="fill:#000000;fill-opacity:1;fill-rule:nonzero;stroke:none"
             id="path68" />
        </g>
        <path
           d="m 329.559,482.818 h 67.95 v 5.003 h -67.95 z"
           style="fill:#000000;fill-opacity:1;fill-rule:nonzero;stroke:none"
           id="path70" />
        <g
           id="g72"
           transform="translate(539.3652,584.3896)">
          <path
             d="m 0,0 88.303,-101.571 h 8.262 L 8.26,0 Z"
             style="fill:#000000;fill-opacity:1;fill-rule:nonzero;stroke:none"
             id="path74" />
        </g>
        <g
           id="g76"
           transform="translate(622.6357,584.3896)">
          <path
             d="m 0,0 -88.482,-101.571 h 8.258 L 8.259,0 Z"
             style="fill:#05acef;fill-opacity:1;fill-rule:nonzero;stroke:none"
             id="path78" />
        </g>
      </g>
    </g>
  </g>
</svg>
