<svg width="2730" height="929" viewBox="0 0 2730 929" fill="none" xmlns="http://www.w3.org/2000/svg">
<g clip-path="url(#clip0_597_63)">
<path d="M629.499 756.481H773.309V773.658H712.117V925.712H690.564V773.658H629.265L629.499 756.481Z" fill="#F1F1F1"/>
<path d="M796.495 756.481H817.168V822.222H819.521C823.676 815.727 829.566 810.524 836.524 807.203C843.481 803.882 851.229 802.575 858.89 803.429C864.799 802.72 870.792 803.327 876.439 805.205C882.086 807.083 887.249 810.186 891.558 814.292C895.867 818.398 899.215 823.406 901.364 828.958C903.514 834.509 904.41 840.467 903.989 846.406V925.874H883.317V848.616C883.74 844.669 883.267 840.679 881.934 836.94C880.602 833.202 878.442 829.813 875.618 827.026C872.794 824.238 869.377 822.124 865.622 820.841C861.867 819.559 857.872 819.14 853.933 819.617C848.816 819.401 843.714 820.293 838.973 822.231C834.233 824.169 829.966 827.108 826.466 830.848C822.965 834.587 820.312 839.038 818.689 843.896C817.066 848.755 816.51 853.907 817.06 859.001V925.856H796.495V756.481Z" fill="#F1F1F1"/>
<path d="M987.829 803.141C995.423 802.573 1003.05 803.69 1010.16 806.411C1017.28 809.132 1023.7 813.391 1028.98 818.883C1034.25 824.375 1038.25 830.965 1040.69 838.183C1043.13 845.4 1043.94 853.067 1043.08 860.636V870.302H949.681C950.166 896.623 964.462 912.955 987.721 912.955C995.454 913.79 1003.22 911.729 1009.52 907.17C1015.83 902.61 1020.22 895.877 1021.85 888.269H1040.4V891.862C1037.61 903.329 1030.75 913.386 1021.08 920.153C1011.42 926.919 999.623 929.931 987.9 928.623C952.213 928.623 929.637 906.649 929.637 865.882C929.637 825.115 952.716 803.141 987.829 803.141ZM1023.27 855.084C1023.74 850.258 1023.15 845.387 1021.54 840.814C1019.93 836.241 1017.33 832.076 1013.94 828.615C1010.55 825.153 1006.44 822.477 1001.9 820.777C997.357 819.076 992.5 818.392 987.668 818.773C982.765 818.483 977.855 819.214 973.249 820.919C968.644 822.624 964.442 825.266 960.909 828.679C957.376 832.092 954.589 836.2 952.724 840.745C950.86 845.29 949.958 850.172 950.076 855.084H1023.27Z" fill="#F1F1F1"/>
<path d="M1134.42 756.481H1209.12C1238.72 756.481 1261.53 770.855 1261.53 798.919C1262.25 807.701 1259.72 816.442 1254.43 823.481C1249.13 830.52 1241.43 835.367 1232.79 837.099V839.453C1242.18 840.958 1250.67 845.937 1256.56 853.405C1262.46 860.872 1265.33 870.283 1264.62 879.771C1264.62 910.8 1240.3 925.712 1209.86 925.712H1134.42V756.481ZM1155.81 773.658V831.152H1206.55C1225.68 831.152 1241.18 823.282 1241.18 802.405C1241.18 781.527 1225.68 773.658 1206.55 773.658H1155.81ZM1155.81 848.256V908.536H1207.34C1228.02 908.536 1243.64 899.965 1243.64 878.351C1243.64 856.737 1228.02 848.256 1207.34 848.256H1155.81Z" fill="#F1F1F1"/>
<path d="M1312 925.712H1291.34V756.481H1312V925.712Z" fill="#F1F1F1"/>
<path d="M1398.82 803.141C1411.34 802.549 1423.75 805.722 1434.45 812.25C1445.16 818.778 1453.66 828.363 1458.87 839.769C1464.07 851.175 1465.75 863.88 1463.67 876.246C1461.59 888.612 1455.86 900.073 1447.22 909.152C1438.57 918.23 1427.4 924.51 1415.16 927.182C1402.91 929.855 1390.14 928.797 1378.5 924.145C1366.86 919.493 1356.88 911.461 1349.85 901.083C1342.81 890.705 1339.04 878.457 1339.03 865.918C1338.12 857.707 1339.02 849.396 1341.66 841.569C1344.3 833.741 1348.62 826.586 1354.31 820.605C1360.01 814.624 1366.95 809.962 1374.64 806.945C1382.32 803.928 1390.58 802.63 1398.82 803.141ZM1398.82 912.434C1422.17 912.434 1437.7 896.264 1437.7 865.882C1437.7 835.5 1422.2 819.168 1398.82 819.168C1375.44 819.168 1359.94 835.338 1359.94 865.882C1359.94 896.426 1375.56 912.434 1398.82 912.434Z" fill="#F1F1F1"/>
<path d="M1537.82 803.141C1573.25 803.141 1589.34 824.899 1590.91 843.675V847.268H1571.58C1571.29 843.215 1570.19 839.263 1568.34 835.645C1566.49 832.027 1563.93 828.818 1560.82 826.208C1557.71 823.598 1554.1 821.641 1550.22 820.454C1546.33 819.266 1542.25 818.871 1538.21 819.294C1514.38 819.294 1499.11 835.626 1499.11 866.008C1499.11 896.39 1514.31 912.56 1538.25 912.56C1542.37 913.019 1546.55 912.628 1550.52 911.411C1554.49 910.193 1558.17 908.176 1561.33 905.482C1564.49 902.789 1567.06 899.477 1568.89 895.75C1570.72 892.024 1571.77 887.961 1571.98 883.813H1591.3V887.406C1589.65 899.956 1583.11 911.344 1573.1 919.086C1563.09 926.828 1550.43 930.295 1537.87 928.731C1521.83 927.871 1506.73 920.892 1495.68 909.23C1484.63 897.568 1478.47 882.112 1478.47 866.044C1478.47 849.975 1484.63 834.519 1495.68 822.857C1506.73 811.195 1521.83 804.216 1537.87 803.357L1537.82 803.141Z" fill="#F1F1F1"/>
<path d="M1657.04 863.079L1724.35 922.119V925.712H1700.14L1640.1 872.548H1637.78V925.784H1617.17V756.481H1637.84V854.437H1640.16L1699.01 806.106H1722.76V809.699L1657.04 863.079Z" fill="#F1F1F1"/>
<path d="M1792.77 803.141C1828.2 803.141 1844.31 824.899 1845.86 843.675V847.268H1826.53C1826.24 843.215 1825.14 839.263 1823.29 835.645C1821.44 832.027 1818.88 828.818 1815.77 826.208C1812.66 823.598 1809.05 821.641 1805.17 820.454C1801.28 819.266 1797.2 818.871 1793.16 819.294C1769.33 819.294 1754.06 835.626 1754.06 866.008C1754.06 896.39 1769.13 912.56 1793.11 912.56C1797.23 913.022 1801.41 912.632 1805.38 911.416C1809.35 910.2 1813.03 908.183 1816.19 905.489C1819.35 902.795 1821.93 899.482 1823.76 895.754C1825.59 892.026 1826.64 887.962 1826.84 883.813H1846.18V887.406C1844.53 899.946 1838 911.325 1828 919.065C1818 926.805 1805.35 930.28 1792.8 928.731C1776.76 927.871 1761.65 920.89 1750.6 909.224C1739.55 897.559 1733.39 882.099 1733.39 866.026C1733.39 849.953 1739.55 834.492 1750.6 822.827C1761.65 811.162 1776.76 804.18 1792.8 803.321L1792.77 803.141Z" fill="#F1F1F1"/>
<path d="M1871.9 756.481H1892.64V822.222H1895C1899.15 815.733 1905.03 810.534 1911.98 807.213C1918.93 803.892 1926.67 802.582 1934.33 803.429C1940.24 802.717 1946.23 803.321 1951.88 805.198C1957.53 807.075 1962.7 810.178 1967.01 814.285C1971.32 818.391 1974.66 823.401 1976.81 828.954C1978.96 834.507 1979.85 840.467 1979.43 846.406V925.874H1958.76V848.616C1959.18 844.672 1958.71 840.683 1957.38 836.946C1956.05 833.209 1953.9 829.821 1951.08 827.034C1948.26 824.246 1944.84 822.131 1941.09 820.847C1937.34 819.563 1933.35 819.143 1929.41 819.617C1924.29 819.401 1919.19 820.293 1914.45 822.231C1909.71 824.169 1905.44 827.108 1901.94 830.848C1898.44 834.587 1895.79 839.038 1894.16 843.896C1892.54 848.755 1891.99 853.907 1892.54 859.001V925.856H1871.81L1871.9 756.481Z" fill="#F1F1F1"/>
<path d="M2010.75 842.866V839.273C2013.23 816.94 2032.31 803.087 2063.25 803.087C2094.2 803.087 2112.34 816.94 2112.34 846.819V925.676H2092.85V908.5H2090.5C2086.18 915.492 2079.92 921.08 2072.49 924.588C2065.06 928.096 2056.77 929.373 2048.63 928.263C2023.18 928.263 2005.4 915.381 2005.4 892.815C2005.4 869.548 2023.36 859.791 2047.57 856.719L2092.35 851.185V845.795C2092.35 826.462 2082.24 818.665 2062.75 818.665C2043.26 818.665 2031.73 826.534 2030.1 842.992L2010.75 842.866ZM2052.62 912.794C2057.93 913.267 2063.28 912.576 2068.29 910.771C2073.31 908.965 2077.87 906.088 2081.66 902.339C2085.45 898.591 2088.38 894.06 2090.24 889.064C2092.1 884.068 2092.85 878.726 2092.44 873.41V866.223L2051.43 871.614C2035.68 873.716 2025.66 879.339 2025.66 892.401C2025.66 905.463 2036.13 912.866 2052.46 912.866L2052.62 912.794Z" fill="#F1F1F1"/>
<path d="M2143.86 762.824H2167.82V785.372H2143.86V762.824ZM2166.11 806.106V925.838H2145.46V806.106H2166.11Z" fill="#F1F1F1"/>
<path d="M2200.29 806.106H2220.39V823.031H2222.74C2226.86 816.317 2232.8 810.91 2239.87 807.437C2246.94 803.964 2254.85 802.568 2262.68 803.411C2268.59 802.702 2274.59 803.309 2280.23 805.187C2285.88 807.065 2291.04 810.168 2295.35 814.274C2299.66 818.38 2303.01 823.388 2305.16 828.94C2307.31 834.491 2308.2 840.449 2307.78 846.388V925.856H2287.09V848.598C2287.52 844.652 2287.04 840.661 2285.71 836.922C2284.38 833.184 2282.22 829.795 2279.39 827.008C2276.57 824.22 2273.15 822.106 2269.4 820.824C2265.64 819.541 2261.65 819.122 2257.71 819.599C2252.59 819.383 2247.49 820.275 2242.75 822.213C2238.01 824.151 2233.74 827.09 2230.24 830.83C2226.74 834.569 2224.09 839.02 2222.47 843.879C2220.84 848.737 2220.29 853.889 2220.84 858.983V925.838H2200.16L2200.29 806.106Z" fill="#F1F1F1"/>
<path d="M2480.56 753.193C2530.71 753.193 2564.98 784.941 2564.98 841.088C2564.98 897.234 2530.85 928.982 2480.56 928.982C2430.27 928.982 2396.15 897.234 2396.15 841.088C2396.15 784.941 2430.54 753.193 2480.56 753.193ZM2480.56 911.303C2518.37 911.303 2542.92 885.789 2542.92 841.034C2542.92 796.278 2518.37 770.603 2480.56 770.603C2442.76 770.603 2418.08 796.224 2418.08 840.98C2418.08 885.736 2442.76 911.374 2480.56 911.374V911.303Z" fill="#F1F1F1"/>
<path d="M2652.28 753.768C2692.1 753.768 2716.71 771.879 2718.99 804.201V807.795H2698.66C2697.37 781.15 2678 770.442 2652.63 770.442C2627.25 770.442 2610.2 781.222 2610.2 799.44C2610.2 817.659 2624.45 824.935 2647.08 828.798L2666.24 832.014C2699.25 837.53 2719.8 849.281 2719.8 879.609C2719.8 909.937 2696.32 928.623 2655.77 928.623C2615.21 928.623 2587.52 909.937 2584.72 877.075V873.482H2604.92C2607.85 901.187 2629.12 912.147 2655.43 912.147C2681.74 912.147 2698.78 901.367 2698.78 881.244C2698.78 861.121 2682.94 853.88 2660.13 850.125L2640.95 846.891C2608.07 841.501 2589.03 828.205 2589.03 800.177C2589.03 772.148 2612.47 753.768 2652.28 753.768Z" fill="#F1F1F1"/>
<path d="M2716.26 167.111V617.345H2641.2V167.111H2716.26Z" fill="#F1F1F1"/>
<path d="M2730 0H2627.16V94.9914H2730V0Z" fill="#F1F1F1"/>
<path d="M1888.37 152.504C2019.59 152.504 2100.65 243.758 2100.65 376.803V410.276H1741.69C1743.48 502.788 1802.25 571.583 1890.31 571.583C1974.87 571.583 2017.45 514.268 2025.37 469.315H2096.87V482.521C2084.53 538.901 2025.75 631.072 1890.11 631.072C1758.89 631.072 1666.38 539.818 1666.38 391.788C1666.38 243.758 1758.89 152.504 1888.37 152.504ZM2025.35 351.128C2022.71 273.601 1975.55 211.992 1888.37 211.992C1802.91 211.992 1748.71 273.601 1741.69 351.128H2025.35Z" fill="#F1F1F1"/>
<path d="M2360.44 152.504C2475.82 152.504 2543.64 207.644 2555.1 288.675V301.917H2483.76C2479.38 241.979 2430.94 211.992 2360.46 211.992C2290.88 211.992 2245.24 240.991 2245.24 284.291C2245.24 327.592 2284.76 342.289 2333.14 351.254L2406.26 364.46C2496.06 380.307 2558.66 411.174 2558.66 491.343C2558.66 570.649 2491.68 631.054 2368.38 631.054C2245.08 631.054 2171.09 570.631 2157.85 483.419V470.214H2229.39C2237.31 538.919 2292.61 571.583 2367.5 571.583C2443.22 571.583 2483.74 539.817 2483.74 495.762C2483.74 453.45 2447.64 438.466 2388.55 427.901L2315.44 414.696C2231.69 399.711 2173.71 365.322 2173.71 287.813C2173.73 207.644 2245.14 152.504 2360.44 152.504Z" fill="#F1F1F1"/>
<path d="M1409.67 22.8719H1484.98V167.093H1617.53V232.546H1484.98V542.477L1490.81 549.538H1621.66V617.453H1510.3C1449.68 617.453 1409.72 580.459 1409.72 507.315L1409.67 22.8719Z" fill="#F1F1F1"/>
<path d="M632.516 298.377C647.459 214.597 721.474 152.504 832.452 152.504C943.431 152.504 1020.09 214.651 1020.09 323.926V617.345H944.778V550.292H939.91C920.585 582.004 873.851 630.856 780.493 630.856C684.476 630.856 616.639 577.494 616.639 497.29C616.639 413.51 684.476 373.946 776.074 365.179L946.951 350.967V322.112C946.951 249.004 901.151 210.627 830.674 210.627C759.335 210.627 711.955 249.004 704.017 311.547H632.516V298.377ZM793.568 571.583C875.486 571.583 946.915 524.276 946.915 422.942V410.599L786.599 421.757C728.623 427.039 688.14 442.023 688.14 494.002C688.14 552.448 732.807 571.601 793.604 571.601L793.568 571.583Z" fill="#F1F1F1"/>
<path d="M1180.33 167.111V232.546H1186.42C1202.3 199.038 1229.52 167.272 1296.55 167.272H1342.35V232.546H1297.25C1212.69 232.546 1180.1 280.878 1180.1 372.689V617.543H1105.02V167.111H1180.33Z" fill="#F1F1F1"/>
<path d="M291.338 0C463.471 0 539.965 109.006 550.562 194.241V207.123H479.043C471.859 145.64 421.929 62.7766 291.356 62.7766C162.04 62.7766 71.5188 157.085 71.5188 315.68C71.5188 474.274 160.639 568.583 289.973 568.583C419.306 568.583 472.685 482.772 482.456 420.858H550.58V433.741C537.864 516.389 465.16 631.377 291.356 631.377C102.016 631.395 0 491.415 0 315.841C0 123.756 118.378 0 291.338 0Z" fill="#F1F1F1"/>
</g>
<defs>
<clipPath id="clip0_597_63">
<rect width="2730" height="929" fill="white"/>
</clipPath>
</defs>
</svg>
