<svg id="Logo" xmlns="http://www.w3.org/2000/svg" viewBox="0 0 850.39 198.43"><defs><style>.cls-1{fill:#fff;}</style></defs><path class="cls-1" d="M844.7,53.69V193.42H821.4V53.69Z"/><rect class="cls-1" x="817.04" y="1.83" width="31.93" height="29.48"/><path class="cls-1" d="M587.68,49.16c40.74,0,65.9,28.32,65.9,69.61v10.39H542.14c.54,28.71,18.8,50.06,46.14,50.06,26.25,0,39.47-17.79,41.93-31.74h22.2v4.1c-3.83,17.5-22.08,46.1-64.19,46.1-40.74,0-69.46-28.32-69.46-74.26S547.48,49.16,587.68,49.16Zm42.53,61.64c-.82-24.06-15.46-43.18-42.53-43.18-26.53,0-43.36,19.12-45.54,43.18Z"/><path class="cls-1" d="M734.24,49.16c35.82,0,56.88,17.11,60.43,42.26v4.11H772.52c-1.36-18.6-16.4-27.91-38.28-27.91-21.6,0-35.77,9-35.77,22.44s12.25,18,27.29,20.78l22.7,4.1c27.89,4.92,47.31,14.49,47.31,39.38,0,24.61-20.79,43.36-59.07,43.36s-61.25-18.75-65.36-45.82v-4.1h22.21c2.46,21.32,19.63,31.46,42.88,31.46,23.51,0,36.09-9.86,36.09-23.53,0-13.13-11.21-17.78-29.53-21.06l-22.7-4.1c-26-4.65-44-15.32-44-39.38C676.27,66.27,698.42,49.16,734.24,49.16Z"/><path class="cls-1" d="M439.06,8.93h23.38V53.69h41.15V74H462.44v96.19l1.81,2.19h40.62v21.08H470.29c-18.82,0-31.23-11.48-31.23-34.18Z"/><path class="cls-1" d="M197.79,94.43c4.64-26,27.62-45.27,62.07-45.27s58.25,19.29,58.25,53.2v91.06H294.73V172.64h-1.51c-6,9.84-20.51,25-49.49,25-29.81,0-50.87-16.56-50.87-41.45,0-26,21.06-38.28,49.5-41l53.05-4.41v-9c0-22.69-14.22-34.6-36.1-34.6-22.15,0-36.86,11.91-39.32,31.32h-22.2Zm50,84.79c25.43,0,47.61-14.68,47.61-46.13v-3.83l-49.77,3.46c-18,1.64-30.57,6.29-30.57,22.42C215.07,173.28,228.93,179.22,247.8,179.22Z"/><path class="cls-1" d="M367.86,53.69V74h1.89c4.93-10.4,13.4-20.26,34.19-20.26h14.22V74h-14c-26.25,0-36.37,15-36.37,43.48v76H344.48V53.69Z"/><path class="cls-1" d="M91.87,1.83c53.44,0,77.19,33.83,80.48,60.28v4H150.14c-2.23-19.08-17.73-44.8-58.27-44.8-40.14,0-68.25,29.27-68.25,78.49s27.67,78.49,67.82,78.49,56.73-26.63,59.76-45.85h21.15v4c-3.95,25.67-26.52,61.34-80.48,61.34-58.79,0-90.45-43.44-90.45-97.93C1.42,40.24,38.17,1.83,91.87,1.83Z"/></svg>