<svg width="2228" height="886" viewBox="0 0 2228 886" fill="none" xmlns="http://www.w3.org/2000/svg">
<path fill-rule="evenodd" clip-rule="evenodd" d="M1960.16 245.926V515.894C1960.16 572.412 1976.62 665.824 2121.28 665.824C2158.49 665.824 2189.47 659.732 2212.16 654.545V554.926C2196.62 559.101 2176.99 562.148 2161.56 562.148C2099.61 562.148 2092.35 527.288 2092.35 498.52V245.926H2227.59V142.248H2092.35V2.58258H1972.53V64.1799C1972.53 119.685 1947.68 142.248 1884.71 142.248H1849.65V245.926H1960.16ZM120.837 142.248H0V655.559H132.183V350.617C132.183 279.769 178.589 245.925 226.129 245.925C275.711 245.925 313.949 280.784 313.949 348.587V655.447H446.019V351.522C446.019 286.876 484.254 245.812 539.965 245.812C589.548 245.812 628.803 278.754 628.803 344.412V655.559H761.101V319.819C761.101 195.609 692.911 131.981 586.598 131.981C498.777 131.981 453.393 173.047 425.481 213.096H417.2C399.612 176.092 363.532 131.981 281.952 131.981C211.72 131.981 168.377 164.811 140.465 202.83H132.183L120.837 142.248ZM761.667 141.459L963.857 605.581L850.28 863.592H987.683L1302.42 141.459H1166.16L1040.33 441.209H1032.05L897.707 141.459H761.667ZM1333.4 142.248H1454.24L1465.58 202.83H1473.87C1504.84 162.78 1548.18 131.981 1625.68 131.981C1748.56 131.981 1827.07 210.05 1827.07 344.525V655.559H1694.89V371.151C1694.89 286.989 1646.33 245.925 1584.38 245.925C1521.41 245.925 1465.58 285.974 1465.58 377.355V655.559H1333.4V142.248Z" fill="white"/>
</svg>
