<?xml version="1.0" encoding="utf-8"?>
<!-- Generator: Adobe Illustrator 27.3.1, SVG Export Plug-In . SVG Version: 6.00 Build 0)  -->
<svg version="1.1" id="Layer_1" xmlns="http://www.w3.org/2000/svg" xmlns:xlink="http://www.w3.org/1999/xlink" x="0px" y="0px"
	 viewBox="0 0 222 113.3" style="enable-background:new 0 0 222 113.3;" xml:space="preserve">
<style type="text/css">
	.st0{fill-rule:evenodd;clip-rule:evenodd;fill:#FFFFFF;}
	.st1{fill-rule:evenodd;clip-rule:evenodd;fill:#101010;}
</style>
<path class="st0" d="M160.6,45.5v16c0,3.4,1,8.9,9.5,8.9c2.2,0,4-0.4,5.4-0.7v-5.9c-0.9,0.2-2.1,0.4-3,0.4c-3.7,0-4.1-2.1-4.1-3.8
	v-15h8v-6.2h-8v-8.3h-7.1v3.7c0,3.3-1.5,4.6-5.2,4.6h-2.1v6.2H160.6z M52.1,39.4h-7.1v30.5h7.8V51.7c0-4.2,2.7-6.2,5.5-6.2
	c2.9,0,5.2,2.1,5.2,6.1v18.2h7.8v-18c0-3.8,2.3-6.3,5.5-6.3c2.9,0,5.2,2,5.2,5.9v18.5h7.8V49.9c0-7.4-4-11.2-10.3-11.2
	c-5.2,0-7.9,2.4-9.5,4.8h-0.5c-1-2.2-3.2-4.8-8-4.8c-4.1,0-6.7,1.9-8.4,4.2h-0.5L52.1,39.4z M89.9,39.3l11.9,27.6l-6.7,15.3h8.1
	l18.6-42.9h-8l-7.4,17.8h-0.5l-7.9-17.8H89.9z M123.6,39.4h7.1l0.7,3.6h0.5c1.8-2.4,4.4-4.2,9-4.2c7.3,0,11.9,4.6,11.9,12.6v18.5
	H145V53c0-5-2.9-7.4-6.5-7.4c-3.7,0-7,2.4-7,7.8v16.5h-7.8V39.4z"/>
</svg>
